<svg width="20" height="20" viewBox="0 0 20 20" fill="none" xmlns="http://www.w3.org/2000/svg">
<path d="M10 18.332C8.95833 18.332 7.98264 18.1341 7.07292 17.7383C6.16319 17.3424 5.37153 16.8077 4.69792 16.1341C4.02431 15.4605 3.48958 14.6688 3.09375 13.7591C2.69792 12.8494 2.5 11.8737 2.5 10.832C2.5 9.79037 2.69792 8.81467 3.09375 7.90495C3.48958 6.99523 4.02431 6.20356 4.69792 5.52995C5.37153 4.85634 6.16319 4.32161 7.07292 3.92578C7.98264 3.52995 8.95833 3.33203 10 3.33203C11.0417 3.33203 12.0174 3.52995 12.9271 3.92578C13.8368 4.32161 14.6285 4.85634 15.3021 5.52995C15.9757 6.20356 16.5104 6.99523 16.9063 7.90495C17.3021 8.81467 17.5 9.79037 17.5 10.832C17.5 11.8737 17.3021 12.8494 16.9063 13.7591C16.5104 14.6688 15.9757 15.4605 15.3021 16.1341C14.6285 16.8077 13.8368 17.3424 12.9271 17.7383C12.0174 18.1341 11.0417 18.332 10 18.332ZM12.3333 14.332L13.5 13.1654L10.8333 10.4987V6.66536H9.16667V11.1654L12.3333 14.332ZM4.66667 1.95703L5.83333 3.1237L2.29167 6.66536L1.125 5.4987L4.66667 1.95703ZM15.3333 1.95703L18.875 5.4987L17.7083 6.66536L14.1667 3.1237L15.3333 1.95703ZM10 16.6654C11.625 16.6654 13.0035 16.0994 14.1354 14.9674C15.2674 13.8355 15.8333 12.457 15.8333 10.832C15.8333 9.20703 15.2674 7.82856 14.1354 6.69661C13.0035 5.56467 11.625 4.9987 10 4.9987C8.375 4.9987 6.99653 5.56467 5.86458 6.69661C4.73264 7.82856 4.16667 9.20703 4.16667 10.832C4.16667 12.457 4.73264 13.8355 5.86458 14.9674C6.99653 16.0994 8.375 16.6654 10 16.6654Z" fill="#292226"/>
</svg>
